<svg width="26" height="33" viewBox="0 0 26 33" fill="none" xmlns="http://www.w3.org/2000/svg">
<path d="M13 18.75C11.8875 18.75 10.7999 18.4201 9.87492 17.802C8.94989 17.1839 8.22892 16.3054 7.80318 15.2776C7.37744 14.2498 7.26604 13.1188 7.48309 12.0276C7.70013 10.9365 8.23586 9.9342 9.02253 9.14753C9.8092 8.36086 10.8115 7.82513 11.9026 7.60809C12.9938 7.39104 14.1248 7.50244 15.1526 7.92818C16.1804 8.35392 17.0589 9.07489 17.677 9.99992C18.2951 10.9249 18.625 12.0125 18.625 13.125C18.6232 14.6163 18.03 16.046 16.9755 17.1005C15.921 18.155 14.4913 18.7482 13 18.75ZM13 9.75C12.3325 9.75 11.68 9.94794 11.125 10.3188C10.5699 10.6896 10.1374 11.2167 9.88191 11.8334C9.62646 12.4501 9.55963 13.1287 9.68985 13.7834C9.82008 14.4381 10.1415 15.0395 10.6135 15.5115C11.0855 15.9835 11.6869 16.3049 12.3416 16.4352C12.9963 16.5654 13.6749 16.4985 14.2916 16.2431C14.9083 15.9877 15.4354 15.5551 15.8062 15.0001C16.1771 14.445 16.375 13.7925 16.375 13.125C16.3741 12.2302 16.0182 11.3722 15.3855 10.7395C14.7528 10.1068 13.8948 9.7509 13 9.75Z" fill="#102757"/>
<path d="M13 32.25L3.50951 21.0574C3.37764 20.8893 3.24714 20.7202 3.11801 20.55C1.49687 18.4145 0.621084 15.8061 0.625013 13.125C0.625013 9.84295 1.9288 6.69532 4.24957 4.37455C6.57033 2.05379 9.71796 0.75 13 0.75C16.2821 0.75 19.4297 2.05379 21.7505 4.37455C24.0712 6.69532 25.375 9.84295 25.375 13.125C25.3789 15.8049 24.5036 18.4121 22.8831 20.5466L22.882 20.55C22.882 20.55 22.5445 20.9933 22.4939 21.0529L13 32.25ZM4.91351 19.1944C4.91576 19.1944 5.17676 19.5409 5.23639 19.6151L13 28.7715L20.7738 19.6027C20.8233 19.5409 21.0865 19.1921 21.0876 19.191C22.4119 17.4463 23.1276 15.3154 23.125 13.125C23.125 10.4397 22.0583 7.86435 20.1595 5.96554C18.2607 4.06674 15.6853 3 13 3C10.3147 3 7.73936 4.06674 5.84056 5.96554C3.94175 7.86435 2.87501 10.4397 2.87501 13.125C2.87265 15.3168 3.58801 17.4488 4.91351 19.1944Z" fill="#102757"/>
</svg>
