<svg width="27" height="27" viewBox="0 0 27 27" fill="none" xmlns="http://www.w3.org/2000/svg">
<path d="M27 25.5879L19.458 18.0459C21.2704 15.8701 22.1742 13.0793 21.9813 10.2541C21.7885 7.42889 20.5138 4.78681 18.4226 2.87746C16.3314 0.968119 13.5845 -0.061484 10.7535 0.00284241C7.92244 0.0671688 5.22519 1.22047 3.22283 3.22283C1.22047 5.22519 0.0671688 7.92244 0.00284241 10.7535C-0.061484 13.5845 0.968119 16.3314 2.87746 18.4226C4.78681 20.5138 7.42889 21.7885 10.2541 21.9813C13.0793 22.1742 15.8701 21.2704 18.0459 19.458L25.5879 27L27 25.5879ZM2.03307 11.0212C2.03307 9.24349 2.56021 7.50573 3.54783 6.02764C4.53546 4.54956 5.93921 3.39753 7.58157 2.71725C9.22393 2.03696 11.0311 1.85896 12.7747 2.20577C14.5182 2.55258 16.1197 3.40861 17.3767 4.66562C18.6337 5.92263 19.4897 7.52415 19.8366 9.26767C20.1834 11.0112 20.0054 12.8184 19.3251 14.4608C18.6448 16.1031 17.4928 17.5069 16.0147 18.4945C14.5366 19.4821 12.7988 20.0093 11.0212 20.0093C8.63818 20.0066 6.35356 19.0588 4.66854 17.3738C2.98352 15.6888 2.03571 13.4041 2.03307 11.0212Z" fill="#102757"/>
</svg>
